#!OML:ASF X:\für Bonn\!DataBase\2005_08_12_Daniel\c3d\Daniel.ASF
:FULLY-SPECIFIED
:DEGREES
1
root -3.82903 16.7254 -5.82021 -1176.24 96.7084 272.305
lowerback 27.8884 -1.40056 -1.79456
upperback 7.73827 -1.69395 -1.34084
thorax -6.73197 -0.495734 0.0673133
lowerneck 3.9943 -2.5742 -4.5166
upperneck 11.6051 -4.0057 9.56534
head 3.05384 -1.73403 3.5977
rclavicle -9.93923e-016 -9.93923e-015
rhumerus -386.296 -1.48891 272.629
rradius 31.3366
rwrist 8.84212
rhand -18.835 736.977
rfingers 7.12502
rthumb 7.46444 707.129
lclavicle -9.93923e-016 -9.93923e-015
lhumerus -388.212 24.882 -279.231
lradius 30.4579
lwrist -25.7269
lhand -8.3506 -727.355
lfingers 7.12502
lthumb 17.5715 -338.129
rfemur 0.112751 3.00701 28.238
rtibia 35.6069
rfoot 336.642 1.26157
rtoes 13.558
lfemur -25.8248 -8.02348 -18.511
ltibia 63.3261
lfoot -12.0871 1.84421
ltoes -1.79085
2
root -3.71201 16.7406 -5.83124 -1185.21 96.8077 263.304
lowerback 28.1539 -1.28301 -1.81349
upperback 7.87998 -1.54793 -1.45135
thorax -6.70585 -0.420041 -0.0896306
lowerneck 3.9855 -2.46167 -4.53172
upperneck 11.5221 -3.85939 9.62397
head 3.02056 -1.66447 3.62083
rclavicle 1.98785e-015 8.74653e-015
rhumerus -385.823 -0.954639 272.375
rradius 31.5969
rwrist 8.67395
rhand -18.98 737.2
rfingers 7.12502
rthumb 7.32446 707.347
lclavicle 1.98785e-015 8.74653e-015
lhumerus -388.211 25.2464 -279.641
lradius 29.9421
lwrist -26.3062
lhand -8.4501 -727.185
lfingers 7.12502
lthumb 17.4757 -337.95
rfemur 0.898649 3.31747 28.1325
rtibia 34.9985
rfoot 336.999 1.95813
rtoes 13.7546
lfemur -26.1267 -8.57538 -18.6159
ltibia 61.4198
lfoot -12.3779 1.43343
ltoes -2.38108
3
root -3.59333 16.7585 -5.83883 -1193.3 97.0542 255.175
lowerback 28.4211 -1.17821 -1.84536
upperback 8.02611 -1.4217 -1.56818
thorax -6.67387 -0.353335 -0.240559
lowerneck 3.97379 -2.35794 -4.4786
upperneck 11.3931 -3.71713 9.62006
head 2.97245 -1.59772 3.6128
rclavicle 5.1684e-015 1.59028e-015
rhumerus -385.332 -0.459287 272.123
rradius 31.8171
rwrist 8.57533
rhand -19.0976 737.449
rfingers 7.12502
rthumb 7.21097 707.592
lclavicle 5.1684e-015 1.59028e-015
lhumerus -388.166 25.5363 -280.058
lradius 29.3892
lwrist -26.8967
lhand -8.6077 -726.976
lfingers 7.12502
lthumb 17.324 -337.728
rfemur 1.70123 3.61468 28.0329
rtibia 34.3433
rfoot 337.323 2.5759
rtoes 14.0327
lfemur -26.3748 -9.22501 -18.6963
ltibia 59.414
lfoot -12.6929 1.10701
ltoes -2.77571
4
root -3.4758 16.7733 -5.84337 -1200.32 97.354 248.127
lowerback 28.7175 -1.09494 -1.88466
upperback 8.19052 -1.3183 -1.63059
thorax -6.63236 -0.296857 -0.320054
lowerneck 3.96989 -2.23468 -4.51168
upperneck 11.2254 -3.55259 9.6633
head 2.91185 -1.5235 3.63399
rclavicle 1.13307e-014 2.10712e-014
rhumerus -384.784 0.141104 271.924
rradius 31.9769
rwrist 8.43467
rhand -19.2297 737.692
rfingers 7.12502
rthumb 7.08339 707.83
lclavicle 1.13307e-014 2.10712e-014
lhumerus -388.07 25.717 -280.376
lradius 28.8637
lwrist -27.4373
lhand -8.72233 -726.729
lfingers 7.12502
lthumb 17.2137 -337.472
rfemur 2.53265 3.85138 27.9869
rtibia 33.6557
rfoot 337.609 3.14254
rtoes 14.1168
lfemur -26.5896 -9.96758 -18.681
ltibia 57.3394
lfoot -12.9322 0.814564
ltoes -2.42425
5
root -3.35858 16.7846 -5.84484 -1205.99 97.7165 242.397
lowerback 28.9807 -1.0304 -1.94707
upperback 8.34764 -1.24599 -1.69661
thorax -6.58132 -0.255601 -0.380615
lowerneck 4.00429 -2.11104 -4.50044
upperneck 11.0076 -3.38298 9.68797
head 2.8288 -1.44774 3.64223
rclavicle 9.93923e-015 -7.15625e-015
rhumerus -384.267 0.660536 271.751
rradius 32.1563
rwrist 8.45587
rhand -19.2942 737.939
rfingers 7.12502
rthumb 7.02118 708.075
lclavicle 9.93923e-015 -7.15625e-015
lhumerus -387.937 25.7889 -280.676
lradius 28.3783
lwrist -27.8997
lhand -8.7965 -726.444
lfingers 7.12502
lthumb 17.1423 -337.18
rfemur 3.31733 4.074 27.9306
rtibia 32.9633
rfoot 337.861 3.68725
rtoes 14.3306
lfemur -26.8318 -10.8231 -18.6412
ltibia 55.2134
lfoot -13.1396 0.632813
ltoes -1.81805
6
root -3.23948 16.7932 -5.843 -1210.91 98.0912 237.404
lowerback 29.246 -0.977538 -1.99216
upperback 8.50467 -1.18292 -1.7523
thorax -6.53077 -0.218774 -0.436973
lowerneck 4.03577 -2.00097 -4.4731
upperneck 10.5596 -3.1829 9.41969
head 2.99945 -1.38971 3.93383
rclavicle 1.94809e-014 1.39149e-014
rhumerus -383.728 1.15866 271.582
rradius 32.2772
rwrist 8.55654
rhand -19.3563 738.12
rfingers 7.12502
rthumb 6.96123 708.254
lclavicle 1.94809e-014 1.39149e-014
lhumerus -387.805 25.6374 -280.922
lradius 27.9814
lwrist -28.2481
lhand -8.86797 -726.158
lfingers 7.12502
lthumb 17.0735 -336.888
rfemur 4.08991 4.27337 27.9262
rtibia 32.2855
rfoot 338.034 4.16711
rtoes 14.3503
lfemur -27.0503 -11.7369 -18.5184
ltibia 53.058
lfoot -13.3204 0.546046
ltoes -1.52089
7
root -3.1209 16.7977 -5.84105 -1215.24 98.4685 233.013
lowerback 29.5274 -0.945208 -2.03329
upperback 8.67788 -1.14115 -1.78697
thorax -6.46826 -0.191582 -0.46538
lowerneck 4.01755 -1.88666 -4.42936
upperneck 10.3597 -3.02414 9.4109
head 2.91891 -1.31654 3.92062
rclavicle -5.76476e-015 -1.59028e-015
rhumerus -383.174 1.69242 271.436
rradius 32.3968
rwrist 8.65202
rhand -19.3543 738.261
rfingers 7.12502
rthumb 6.96311 708.396
lclavicle -5.76476e-015 -1.59028e-015
lhumerus -387.662 25.4163 -281.114
lradius 27.7021
lwrist -28.4716
lhand -8.75293 -725.927
lfingers 7.12502
lthumb 17.1843 -336.667
rfemur 4.85447 4.43206 27.943
rtibia 31.6254
rfoot 338.191 4.64366
rtoes 14.5161
lfemur -27.2767 -12.7429 -18.3178
ltibia 50.9059
lfoot -13.5062 0.61152
ltoes -1.46378
8
root -3.00164 16.8012 -5.83672 -1219.04 98.8759 229.129
lowerback 29.792 -0.908525 -2.07117
upperback 8.84546 -1.09306 -1.81487
thorax -6.40324 -0.161829 -0.490527
lowerneck 4.02925 -1.775 -4.41814
upperneck 10.1518 -2.869 9.40067
head 2.83159 -1.24712 3.91309
rclavicle -6.95746e-015 -1.90833e-014
rhumerus -382.616 2.1439 271.312
rradius 32.4801
rwrist 8.86402
rhand -19.3529 738.394
rfingers 7.12502
rthumb 6.96452 708.528
lclavicle -6.95746e-015 -1.90833e-014
lhumerus -387.524 25.0733 -281.268
lradius 27.4693
lwrist -28.6282
lhand -8.64787 -725.76
lfingers 7.12502
lthumb 17.2854 -336.509
rfemur 5.59098 4.60798 27.9684
rtibia 30.9791
rfoot 338.301 5.06578
rtoes 14.4999
lfemur -27.5549 -13.7945 -18.0659
ltibia 48.7842
lfoot -13.6844 0.616067
ltoes -1.33769
9
root -2.88162 16.8021 -5.83147 -1222.44 99.302 225.628
lowerback 30.0366 -0.897121 -2.07899
upperback 9.01358 -1.06945 -1.85426
thorax -6.3284 -0.143938 -0.537637
lowerneck 4.04289 -1.65245 -4.48021
upperneck 9.94717 -2.70359 9.43134
head 2.74733 -1.17427 3.93482
rclavicle 8.94531e-016 2.34566e-014
rhumerus -382.055 2.55214 271.172
rradius 32.5632
rwrist 9.20851
rhand -19.2867 738.388
rfingers 7.12502
rthumb 7.02841 708.525
lclavicle 8.94531e-016 2.34566e-014
lhumerus -387.409 24.6883 -281.436
lradius 27.3326
lwrist -28.7344
lhand -8.4533 -725.691
lfingers 7.12502
lthumb 17.4726 -336.456
rfemur 6.3033 4.7251 27.9736
rtibia 30.3277
rfoot 338.402 5.56398
rtoes 14.561
lfemur -27.8403 -14.7584 -17.8031
ltibia 46.747
lfoot -13.8866 0.473091
ltoes -1.42066
10
root -2.7624 16.8014 -5.82484 -1225.39 99.7236 222.59
lowerback 30.3249 -0.902942 -2.07157
upperback 9.18929 -1.06229 -1.89561
thorax -6.2649 -0.132736 -0.59026
lowerneck 4.02107 -1.536 -4.52307
upperneck 9.78194 -2.54574 9.44037
head 2.68275 -1.10309 3.94533
rclavicle 8.34896e-015 9.74045e-015
rhumerus -381.486 2.92108 271.037
rradius 32.6414
rwrist 9.61796
rhand -19.138 738.35
rfingers 7.12502
rthumb 7.17192 708.492
lclavicle 8.34896e-015 9.74045e-015
lhumerus -387.275 24.2198 -281.575
lradius 27.2473
lwrist -28.777
lhand -8.28999 -725.669
lfingers 7.12502
lthumb 17.6298 -336.448
rfemur 7.04003 4.85753 27.9986
rtibia 29.6726
rfoot 338.491 6.02826
rtoes 14.6866
lfemur -28.0968 -15.6765 -17.5597
ltibia 44.7954
lfoot -14.2177 0.459503
ltoes -2.2491
11
root -2.64186 16.7988 -5.81605 -1228.05 100.148 219.828
lowerback 30.564 -0.916021 -2.04895
upperback 9.3781 -1.05787 -1.9394
thorax -6.16324 -0.122937 -0.653521
lowerneck 3.99678 -1.41666 -4.59895
upperneck 9.63088 -2.38636 9.47178
head 2.62463 -1.03122 3.97061
rclavicle -4.57205e-015 -2.00773e-014
rhumerus -380.935 3.29166 270.903
rradius 32.7419
rwrist 10.0186
rhand -18.9939 738.27
rfingers 7.12502
rthumb 7.311 708.416
lclavicle -4.57205e-015 -2.00773e-014
lhumerus -387.145 23.7026 -281.696
lradius 27.2514
lwrist -28.7947
lhand -8.08175 -725.618
lfingers 7.12502
lthumb 17.8302 -336.415
rfemur 7.77552 5.0001 28.0458
rtibia 28.9898
rfoot 338.559 6.44597
rtoes 14.7514
lfemur -28.4275 -16.5339 -17.285
ltibia 42.9526
lfoot -14.6601 0.593138
ltoes -3.53782
12
root -2.52219 16.7939 -5.80632 -1230.56 100.552 217.211
lowerback 30.8183 -0.935948 -1.99843
upperback 9.55629 -1.05381 -1.96479
thorax -6.08019 -0.113469 -0.7123
lowerneck 3.97989 -1.30307 -4.65003
upperneck 9.52999 -2.23315 9.45865
head 2.58117 -0.96119 3.97557
rclavicle -1.75924e-014 1.66979e-014
rhumerus -380.421 3.69912 270.813
rradius 32.8495
rwrist 10.4018
rhand -18.8078 738.156
rfingers 7.12502
rthumb 7.4907 708.309
lclavicle -1.75924e-014 1.66979e-014
lhumerus -387.028 23.1684 -281.803
lradius 27.2971
lwrist -28.8123
lhand -7.93166 -725.513
lfingers 7.12502
lthumb 17.9746 -336.323
rfemur 8.51723 5.13839 28.1387
rtibia 28.2759
rfoot 338.641 6.84964
rtoes 14.8432
lfemur -28.8042 -17.3516 -16.9364
ltibia 41.1963
lfoot -15.1671 0.68174
ltoes -4.47079
